<mxfile host="app.diagrams.net" modified="2021-02-17T10:48:07.661Z" agent="5.0 (Windows NT 10.0; Win64; x64) AppleWebKit/537.36 (KHTML, like Gecko) Chrome/88.0.4324.150 Safari/537.36" etag="LAbBuKGWm4YFDRVkiQ0R" version="14.3.2" type="github">
  <diagram id="LwWiuax9vRRG_BayzsEw" name="Page-1">
    <mxGraphModel dx="918" dy="1304" grid="1" gridSize="10" guides="1" tooltips="1" connect="1" arrows="1" fold="1" page="1" pageScale="1" pageWidth="827" pageHeight="1169" math="0" shadow="0">
      <root>
        <mxCell id="0" />
        <mxCell id="1" parent="0" />
        <mxCell id="z56KzRHmVEeqZp8yyt9R-1" value="Connection" style="swimlane;fontStyle=1;align=center;verticalAlign=top;childLayout=stackLayout;horizontal=1;startSize=26;horizontalStack=0;resizeParent=1;resizeParentMax=0;resizeLast=0;collapsible=1;marginBottom=0;" vertex="1" parent="1">
          <mxGeometry x="50" y="394" width="160" height="60" as="geometry" />
        </mxCell>
        <mxCell id="z56KzRHmVEeqZp8yyt9R-2" value="+ charge: double" style="text;strokeColor=none;fillColor=none;align=left;verticalAlign=top;spacingLeft=4;spacingRight=4;overflow=hidden;rotatable=0;points=[[0,0.5],[1,0.5]];portConstraint=eastwest;" vertex="1" parent="z56KzRHmVEeqZp8yyt9R-1">
          <mxGeometry y="26" width="160" height="26" as="geometry" />
        </mxCell>
        <mxCell id="z56KzRHmVEeqZp8yyt9R-3" value="" style="line;strokeWidth=1;fillColor=none;align=left;verticalAlign=middle;spacingTop=-1;spacingLeft=3;spacingRight=3;rotatable=0;labelPosition=right;points=[];portConstraint=eastwest;" vertex="1" parent="z56KzRHmVEeqZp8yyt9R-1">
          <mxGeometry y="52" width="160" height="8" as="geometry" />
        </mxCell>
        <mxCell id="z56KzRHmVEeqZp8yyt9R-59" value="" style="endArrow=diamondThin;endFill=0;endSize=24;html=1;entryX=0.469;entryY=1.038;entryDx=0;entryDy=0;entryPerimeter=0;edgeStyle=orthogonalEdgeStyle;" edge="1" parent="z56KzRHmVEeqZp8yyt9R-1" target="z56KzRHmVEeqZp8yyt9R-58">
          <mxGeometry width="160" relative="1" as="geometry">
            <mxPoint x="70" y="-4" as="sourcePoint" />
            <mxPoint x="230" y="-4" as="targetPoint" />
          </mxGeometry>
        </mxCell>
        <mxCell id="z56KzRHmVEeqZp8yyt9R-5" value="Battery" style="swimlane;fontStyle=1;align=center;verticalAlign=top;childLayout=stackLayout;horizontal=1;startSize=26;horizontalStack=0;resizeParent=1;resizeParentMax=0;resizeLast=0;collapsible=1;marginBottom=0;" vertex="1" parent="1">
          <mxGeometry x="40" y="690" width="270" height="138" as="geometry" />
        </mxCell>
        <mxCell id="z56KzRHmVEeqZp8yyt9R-15" value="- voltage: double" style="text;strokeColor=none;fillColor=none;align=left;verticalAlign=top;spacingLeft=4;spacingRight=4;overflow=hidden;rotatable=0;points=[[0,0.5],[1,0.5]];portConstraint=eastwest;" vertex="1" parent="z56KzRHmVEeqZp8yyt9R-5">
          <mxGeometry y="26" width="270" height="26" as="geometry" />
        </mxCell>
        <mxCell id="z56KzRHmVEeqZp8yyt9R-7" value="" style="line;strokeWidth=1;fillColor=none;align=left;verticalAlign=middle;spacingTop=-1;spacingLeft=3;spacingRight=3;rotatable=0;labelPosition=right;points=[];portConstraint=eastwest;" vertex="1" parent="z56KzRHmVEeqZp8yyt9R-5">
          <mxGeometry y="52" width="270" height="8" as="geometry" />
        </mxCell>
        <mxCell id="z56KzRHmVEeqZp8yyt9R-8" value="+ Battery(Connection, Connection, double)&#xa;" style="text;strokeColor=none;fillColor=none;align=left;verticalAlign=top;spacingLeft=4;spacingRight=4;overflow=hidden;rotatable=0;points=[[0,0.5],[1,0.5]];portConstraint=eastwest;" vertex="1" parent="z56KzRHmVEeqZp8yyt9R-5">
          <mxGeometry y="60" width="270" height="26" as="geometry" />
        </mxCell>
        <mxCell id="z56KzRHmVEeqZp8yyt9R-12" value="+ update(double) : void" style="text;strokeColor=none;fillColor=none;align=left;verticalAlign=top;spacingLeft=4;spacingRight=4;overflow=hidden;rotatable=0;points=[[0,0.5],[1,0.5]];portConstraint=eastwest;fontStyle=0" vertex="1" parent="z56KzRHmVEeqZp8yyt9R-5">
          <mxGeometry y="86" width="270" height="26" as="geometry" />
        </mxCell>
        <mxCell id="z56KzRHmVEeqZp8yyt9R-24" value="+ get_current() : double" style="text;strokeColor=none;fillColor=none;align=left;verticalAlign=top;spacingLeft=4;spacingRight=4;overflow=hidden;rotatable=0;points=[[0,0.5],[1,0.5]];portConstraint=eastwest;" vertex="1" parent="z56KzRHmVEeqZp8yyt9R-5">
          <mxGeometry y="112" width="270" height="26" as="geometry" />
        </mxCell>
        <mxCell id="z56KzRHmVEeqZp8yyt9R-9" value="Component" style="swimlane;fontStyle=1;align=center;verticalAlign=top;childLayout=stackLayout;horizontal=1;startSize=26;horizontalStack=0;resizeParent=1;resizeParentMax=0;resizeLast=0;collapsible=1;marginBottom=0;" vertex="1" parent="1">
          <mxGeometry x="355" y="360" width="220" height="190" as="geometry" />
        </mxCell>
        <mxCell id="z56KzRHmVEeqZp8yyt9R-54" value="" style="endArrow=diamondThin;endFill=0;endSize=24;html=1;edgeStyle=orthogonalEdgeStyle;entryX=1;entryY=0.5;entryDx=0;entryDy=0;" edge="1" parent="z56KzRHmVEeqZp8yyt9R-9" target="z56KzRHmVEeqZp8yyt9R-58">
          <mxGeometry width="160" relative="1" as="geometry">
            <mxPoint x="55" as="sourcePoint" />
            <mxPoint x="55" y="-100" as="targetPoint" />
          </mxGeometry>
        </mxCell>
        <mxCell id="z56KzRHmVEeqZp8yyt9R-10" value="# left: Connection &amp;" style="text;strokeColor=none;fillColor=none;align=left;verticalAlign=top;spacingLeft=4;spacingRight=4;overflow=hidden;rotatable=0;points=[[0,0.5],[1,0.5]];portConstraint=eastwest;" vertex="1" parent="z56KzRHmVEeqZp8yyt9R-9">
          <mxGeometry y="26" width="220" height="26" as="geometry" />
        </mxCell>
        <mxCell id="z56KzRHmVEeqZp8yyt9R-13" value="# right: Connection &amp;" style="text;strokeColor=none;fillColor=none;align=left;verticalAlign=top;spacingLeft=4;spacingRight=4;overflow=hidden;rotatable=0;points=[[0,0.5],[1,0.5]];portConstraint=eastwest;" vertex="1" parent="z56KzRHmVEeqZp8yyt9R-9">
          <mxGeometry y="52" width="220" height="26" as="geometry" />
        </mxCell>
        <mxCell id="z56KzRHmVEeqZp8yyt9R-14" value="# name string" style="text;strokeColor=none;fillColor=none;align=left;verticalAlign=top;spacingLeft=4;spacingRight=4;overflow=hidden;rotatable=0;points=[[0,0.5],[1,0.5]];portConstraint=eastwest;" vertex="1" parent="z56KzRHmVEeqZp8yyt9R-9">
          <mxGeometry y="78" width="220" height="26" as="geometry" />
        </mxCell>
        <mxCell id="z56KzRHmVEeqZp8yyt9R-11" value="" style="line;strokeWidth=1;fillColor=none;align=left;verticalAlign=middle;spacingTop=-1;spacingLeft=3;spacingRight=3;rotatable=0;labelPosition=right;points=[];portConstraint=eastwest;" vertex="1" parent="z56KzRHmVEeqZp8yyt9R-9">
          <mxGeometry y="104" width="220" height="8" as="geometry" />
        </mxCell>
        <mxCell id="z56KzRHmVEeqZp8yyt9R-26" value="+ virutal update(double) : void" style="text;strokeColor=none;fillColor=none;align=left;verticalAlign=top;spacingLeft=4;spacingRight=4;overflow=hidden;rotatable=0;points=[[0,0.5],[1,0.5]];portConstraint=eastwest;fontStyle=2" vertex="1" parent="z56KzRHmVEeqZp8yyt9R-9">
          <mxGeometry y="112" width="220" height="26" as="geometry" />
        </mxCell>
        <mxCell id="z56KzRHmVEeqZp8yyt9R-28" value="+ virtual get_current() : double = 0 " style="text;strokeColor=none;fillColor=none;align=left;verticalAlign=top;spacingLeft=4;spacingRight=4;overflow=hidden;rotatable=0;points=[[0,0.5],[1,0.5]];portConstraint=eastwest;fontStyle=2" vertex="1" parent="z56KzRHmVEeqZp8yyt9R-9">
          <mxGeometry y="138" width="220" height="26" as="geometry" />
        </mxCell>
        <mxCell id="z56KzRHmVEeqZp8yyt9R-27" value="+ get_voltage(): double" style="text;strokeColor=none;fillColor=none;align=left;verticalAlign=top;spacingLeft=4;spacingRight=4;overflow=hidden;rotatable=0;points=[[0,0.5],[1,0.5]];portConstraint=eastwest;" vertex="1" parent="z56KzRHmVEeqZp8yyt9R-9">
          <mxGeometry y="164" width="220" height="26" as="geometry" />
        </mxCell>
        <mxCell id="z56KzRHmVEeqZp8yyt9R-29" value="Resistor" style="swimlane;fontStyle=1;align=center;verticalAlign=top;childLayout=stackLayout;horizontal=1;startSize=26;horizontalStack=0;resizeParent=1;resizeParentMax=0;resizeLast=0;collapsible=1;marginBottom=0;" vertex="1" parent="1">
          <mxGeometry x="340" y="730" width="270" height="138" as="geometry" />
        </mxCell>
        <mxCell id="z56KzRHmVEeqZp8yyt9R-50" value="Extends" style="endArrow=block;endSize=16;endFill=0;html=1;entryX=0.523;entryY=1;entryDx=0;entryDy=0;entryPerimeter=0;edgeStyle=orthogonalEdgeStyle;" edge="1" parent="z56KzRHmVEeqZp8yyt9R-29" target="z56KzRHmVEeqZp8yyt9R-27">
          <mxGeometry width="160" relative="1" as="geometry">
            <mxPoint x="130" as="sourcePoint" />
            <mxPoint x="290" as="targetPoint" />
          </mxGeometry>
        </mxCell>
        <mxCell id="z56KzRHmVEeqZp8yyt9R-30" value="- resistance: double" style="text;strokeColor=none;fillColor=none;align=left;verticalAlign=top;spacingLeft=4;spacingRight=4;overflow=hidden;rotatable=0;points=[[0,0.5],[1,0.5]];portConstraint=eastwest;" vertex="1" parent="z56KzRHmVEeqZp8yyt9R-29">
          <mxGeometry y="26" width="270" height="26" as="geometry" />
        </mxCell>
        <mxCell id="z56KzRHmVEeqZp8yyt9R-31" value="" style="line;strokeWidth=1;fillColor=none;align=left;verticalAlign=middle;spacingTop=-1;spacingLeft=3;spacingRight=3;rotatable=0;labelPosition=right;points=[];portConstraint=eastwest;" vertex="1" parent="z56KzRHmVEeqZp8yyt9R-29">
          <mxGeometry y="52" width="270" height="8" as="geometry" />
        </mxCell>
        <mxCell id="z56KzRHmVEeqZp8yyt9R-32" value="+ Resistor(Connection, Connection, double)&#xa;" style="text;strokeColor=none;fillColor=none;align=left;verticalAlign=top;spacingLeft=4;spacingRight=4;overflow=hidden;rotatable=0;points=[[0,0.5],[1,0.5]];portConstraint=eastwest;" vertex="1" parent="z56KzRHmVEeqZp8yyt9R-29">
          <mxGeometry y="60" width="270" height="26" as="geometry" />
        </mxCell>
        <mxCell id="z56KzRHmVEeqZp8yyt9R-33" value="+ update(double) : void" style="text;strokeColor=none;fillColor=none;align=left;verticalAlign=top;spacingLeft=4;spacingRight=4;overflow=hidden;rotatable=0;points=[[0,0.5],[1,0.5]];portConstraint=eastwest;fontStyle=0" vertex="1" parent="z56KzRHmVEeqZp8yyt9R-29">
          <mxGeometry y="86" width="270" height="26" as="geometry" />
        </mxCell>
        <mxCell id="z56KzRHmVEeqZp8yyt9R-35" value="+ get_current() : double" style="text;strokeColor=none;fillColor=none;align=left;verticalAlign=top;spacingLeft=4;spacingRight=4;overflow=hidden;rotatable=0;points=[[0,0.5],[1,0.5]];portConstraint=eastwest;" vertex="1" parent="z56KzRHmVEeqZp8yyt9R-29">
          <mxGeometry y="112" width="270" height="26" as="geometry" />
        </mxCell>
        <mxCell id="z56KzRHmVEeqZp8yyt9R-36" value="Capacitor" style="swimlane;fontStyle=1;align=center;verticalAlign=top;childLayout=stackLayout;horizontal=1;startSize=26;horizontalStack=0;resizeParent=1;resizeParentMax=0;resizeLast=0;collapsible=1;marginBottom=0;" vertex="1" parent="1">
          <mxGeometry x="630" y="690" width="270" height="164" as="geometry" />
        </mxCell>
        <mxCell id="z56KzRHmVEeqZp8yyt9R-37" value="- capacitance: double" style="text;strokeColor=none;fillColor=none;align=left;verticalAlign=top;spacingLeft=4;spacingRight=4;overflow=hidden;rotatable=0;points=[[0,0.5],[1,0.5]];portConstraint=eastwest;" vertex="1" parent="z56KzRHmVEeqZp8yyt9R-36">
          <mxGeometry y="26" width="270" height="26" as="geometry" />
        </mxCell>
        <mxCell id="z56KzRHmVEeqZp8yyt9R-43" value="- charge : double" style="text;strokeColor=none;fillColor=none;align=left;verticalAlign=top;spacingLeft=4;spacingRight=4;overflow=hidden;rotatable=0;points=[[0,0.5],[1,0.5]];portConstraint=eastwest;" vertex="1" parent="z56KzRHmVEeqZp8yyt9R-36">
          <mxGeometry y="52" width="270" height="26" as="geometry" />
        </mxCell>
        <mxCell id="z56KzRHmVEeqZp8yyt9R-38" value="" style="line;strokeWidth=1;fillColor=none;align=left;verticalAlign=middle;spacingTop=-1;spacingLeft=3;spacingRight=3;rotatable=0;labelPosition=right;points=[];portConstraint=eastwest;" vertex="1" parent="z56KzRHmVEeqZp8yyt9R-36">
          <mxGeometry y="78" width="270" height="8" as="geometry" />
        </mxCell>
        <mxCell id="z56KzRHmVEeqZp8yyt9R-39" value="+ Capacitor(Connection, Connection, double)&#xa;" style="text;strokeColor=none;fillColor=none;align=left;verticalAlign=top;spacingLeft=4;spacingRight=4;overflow=hidden;rotatable=0;points=[[0,0.5],[1,0.5]];portConstraint=eastwest;" vertex="1" parent="z56KzRHmVEeqZp8yyt9R-36">
          <mxGeometry y="86" width="270" height="26" as="geometry" />
        </mxCell>
        <mxCell id="z56KzRHmVEeqZp8yyt9R-40" value="+ update(double) : void" style="text;strokeColor=none;fillColor=none;align=left;verticalAlign=top;spacingLeft=4;spacingRight=4;overflow=hidden;rotatable=0;points=[[0,0.5],[1,0.5]];portConstraint=eastwest;fontStyle=0" vertex="1" parent="z56KzRHmVEeqZp8yyt9R-36">
          <mxGeometry y="112" width="270" height="26" as="geometry" />
        </mxCell>
        <mxCell id="z56KzRHmVEeqZp8yyt9R-42" value="+ get_current() : double" style="text;strokeColor=none;fillColor=none;align=left;verticalAlign=top;spacingLeft=4;spacingRight=4;overflow=hidden;rotatable=0;points=[[0,0.5],[1,0.5]];portConstraint=eastwest;" vertex="1" parent="z56KzRHmVEeqZp8yyt9R-36">
          <mxGeometry y="138" width="270" height="26" as="geometry" />
        </mxCell>
        <mxCell id="z56KzRHmVEeqZp8yyt9R-47" value="virutal ...()= 0, &quot;pure virtual&quot; tvingar alla under classer att implementera dessa" style="text;strokeColor=none;fillColor=none;align=left;verticalAlign=top;spacingLeft=4;spacingRight=4;overflow=hidden;rotatable=0;points=[[0,0.5],[1,0.5]];portConstraint=eastwest;rounded=0;sketch=0;" vertex="1" parent="1">
          <mxGeometry x="430" y="150" width="420" height="26" as="geometry" />
        </mxCell>
        <mxCell id="z56KzRHmVEeqZp8yyt9R-49" value="&lt;div style=&quot;text-align: left&quot;&gt;&lt;span&gt;Class Battery : public Component&lt;/span&gt;&lt;/div&gt;&lt;div style=&quot;text-align: left&quot;&gt;&lt;span&gt;{&lt;/span&gt;&lt;/div&gt;&lt;div style=&quot;text-align: left&quot;&gt;&lt;span&gt;...&lt;/span&gt;&lt;/div&gt;&lt;div style=&quot;text-align: left&quot;&gt;&lt;span&gt;}&lt;/span&gt;&lt;/div&gt;" style="html=1;rounded=0;sketch=0;" vertex="1" parent="1">
          <mxGeometry x="365" y="970" width="200" height="80" as="geometry" />
        </mxCell>
        <mxCell id="z56KzRHmVEeqZp8yyt9R-51" value="Extends" style="endArrow=block;endSize=16;endFill=0;html=1;entryX=0.232;entryY=1.038;entryDx=0;entryDy=0;edgeStyle=orthogonalEdgeStyle;entryPerimeter=0;" edge="1" parent="1" target="z56KzRHmVEeqZp8yyt9R-27">
          <mxGeometry width="160" relative="1" as="geometry">
            <mxPoint x="170" y="690" as="sourcePoint" />
            <mxPoint x="170.05999999999995" y="510" as="targetPoint" />
          </mxGeometry>
        </mxCell>
        <mxCell id="z56KzRHmVEeqZp8yyt9R-52" value="Extends" style="endArrow=block;endSize=16;endFill=0;html=1;edgeStyle=orthogonalEdgeStyle;exitX=0.57;exitY=0;exitDx=0;exitDy=0;exitPerimeter=0;entryX=0.823;entryY=1.154;entryDx=0;entryDy=0;entryPerimeter=0;" edge="1" parent="1" source="z56KzRHmVEeqZp8yyt9R-36" target="z56KzRHmVEeqZp8yyt9R-27">
          <mxGeometry width="160" relative="1" as="geometry">
            <mxPoint x="180" y="700" as="sourcePoint" />
            <mxPoint x="530" y="561" as="targetPoint" />
            <Array as="points">
              <mxPoint x="784" y="600" />
              <mxPoint x="536" y="600" />
            </Array>
          </mxGeometry>
        </mxCell>
        <mxCell id="z56KzRHmVEeqZp8yyt9R-53" value="" style="endArrow=diamondThin;endFill=1;endSize=24;html=1;" edge="1" parent="1">
          <mxGeometry width="160" relative="1" as="geometry">
            <mxPoint x="210" y="420" as="sourcePoint" />
            <mxPoint x="350" y="420" as="targetPoint" />
          </mxGeometry>
        </mxCell>
        <mxCell id="z56KzRHmVEeqZp8yyt9R-55" value="Circuit" style="swimlane;fontStyle=1;align=center;verticalAlign=top;childLayout=stackLayout;horizontal=1;startSize=26;horizontalStack=0;resizeParent=1;resizeParentMax=0;resizeLast=0;collapsible=1;marginBottom=0;rounded=0;sketch=0;" vertex="1" parent="1">
          <mxGeometry x="110" y="150" width="160" height="86" as="geometry" />
        </mxCell>
        <mxCell id="z56KzRHmVEeqZp8yyt9R-56" value="+C1 : Component" style="text;strokeColor=none;fillColor=none;align=left;verticalAlign=top;spacingLeft=4;spacingRight=4;overflow=hidden;rotatable=0;points=[[0,0.5],[1,0.5]];portConstraint=eastwest;" vertex="1" parent="z56KzRHmVEeqZp8yyt9R-55">
          <mxGeometry y="26" width="160" height="26" as="geometry" />
        </mxCell>
        <mxCell id="z56KzRHmVEeqZp8yyt9R-57" value="" style="line;strokeWidth=1;fillColor=none;align=left;verticalAlign=middle;spacingTop=-1;spacingLeft=3;spacingRight=3;rotatable=0;labelPosition=right;points=[];portConstraint=eastwest;" vertex="1" parent="z56KzRHmVEeqZp8yyt9R-55">
          <mxGeometry y="52" width="160" height="8" as="geometry" />
        </mxCell>
        <mxCell id="z56KzRHmVEeqZp8yyt9R-58" value="+ method(type): type" style="text;strokeColor=none;fillColor=none;align=left;verticalAlign=top;spacingLeft=4;spacingRight=4;overflow=hidden;rotatable=0;points=[[0,0.5],[1,0.5]];portConstraint=eastwest;" vertex="1" parent="z56KzRHmVEeqZp8yyt9R-55">
          <mxGeometry y="60" width="160" height="26" as="geometry" />
        </mxCell>
      </root>
    </mxGraphModel>
  </diagram>
</mxfile>
